<?xml version="1.0" encoding="UTF-8"?>
<svg version="1.1" xmlns="http://www.w3.org/2000/svg" width="1024" height="1024">
<path d="M0 0 C337.92 0 675.84 0 1024 0 C1024 337.92 1024 675.84 1024 1024 C686.08 1024 348.16 1024 0 1024 C0 686.08 0 348.16 0 0 Z " fill="#FEFDFA" transform="translate(0,0)"/>
<path d="M0 0 C0.90692848 -0.00058914 1.81385696 -0.00117828 2.74826813 -0.00178528 C33.58384324 -0.01590433 64.2605279 0.58973689 95 3.25 C96.27034088 3.35891571 96.27034088 3.35891571 97.56634521 3.47003174 C199.01036025 12.2950111 199.01036025 12.2950111 218 34.25 C218.5 37.125 218.5 37.125 218 40.25 C212.69929356 47.04153013 204.4996787 50.81955226 196.5625 53.6875 C195.74885986 53.98188965 194.93521973 54.2762793 194.09692383 54.57958984 C115.34393923 82.0534495 15.40446542 79.7520192 -154.65795898 52.33422852 C-162.30876608 48.59766326 -169.20573562 44.44139658 -174 37.25 C-174.13715828 33.68388463 -173.83100471 31.29385061 -171.56640625 28.44921875 C-147.21451339 5.61615496 -101.46088117 4.95008834 -70.1875 2.125 C-69.35452393 2.04934814 -68.52154785 1.97369629 -67.66333008 1.89575195 C-64.77702395 1.65194352 -61.88995239 1.44616436 -59 1.25 C-57.75299316 1.16169922 -56.50598633 1.07339844 -55.22119141 0.98242188 C-36.8458132 -0.1868243 -18.40400456 0.00547104 0 0 Z " fill="#FEFDFA" transform="translate(708,894.75)"/>
<path d="M0 0 C0.91845703 0.25700684 1.83691406 0.51401367 2.78320312 0.77880859 C23.95715616 6.87286681 46.74542973 16.89200121 58.56640625 36.61328125 C62.19669643 43.59460851 64.49290266 50.4960456 62.3515625 58.390625 C57.48210194 71.95852365 46.28007729 79.27931131 33.7800293 85.44116211 C8.11072975 97.44945984 -20.60190663 100.23227566 -48.5625 100.25 C-49.99604828 100.25101212 -49.99604828 100.25101212 -51.45855713 100.25204468 C-87.53391265 100.21165985 -127.14376252 96.75946357 -154.87890625 71.17578125 C-160.46225014 65.44848374 -163.26975787 60.91345803 -163.4375 52.8125 C-163.25111743 43.08771529 -159.03925276 36.24452115 -152.47265625 29.28515625 C-114.71686504 -5.60763658 -47.84241479 -13.56889436 0 0 Z " fill="#FEFDFA" transform="translate(882,590)"/>
<path d="M0 0 C9.68283484 8.02925213 17.25283789 19.43850688 19 32 C20.61478745 52.60007414 13.57262383 71.85966845 0.19140625 87.59765625 C-14.07285065 103.23494323 -30.36868386 114.4654371 -51 120 C-51.62261719 120.17515137 -52.24523437 120.35030273 -52.88671875 120.53076172 C-73.24423113 125.73622964 -95.47195139 122.68079263 -113.48828125 112.1953125 C-127.60806476 103.57060928 -137.98732873 91.1861339 -142 75 C-144.13061951 54.00779089 -134.64819828 36.10818395 -121.75390625 20.23046875 C-109.25345396 5.34682041 -95.49201234 -4.84706516 -77 -11 C-75.78054688 -11.41378906 -74.56109375 -11.82757813 -73.3046875 -12.25390625 C-48.57100148 -19.54196363 -20.78494636 -15.36418103 0 0 Z " fill="#FEFDFA" transform="translate(587,106)"/>
<path d="M0 0 C-3.35592603 1.11864201 -4.10165812 0.89164534 -7.3515625 -0.14453125 C-8.20363281 -0.40943359 -9.05570313 -0.67433594 -9.93359375 -0.94726562 C-10.82175781 -1.23279297 -11.70992187 -1.51832031 -12.625 -1.8125 C-21.81249279 -4.72210092 -30.29410834 -7.35294151 -40 -7 C-40.77242269 -5.16299211 -40.77242269 -5.16299211 -41 -3 C-38.6230625 0.29337896 -35.70783661 0.85933886 -31.890625 1.83203125 C-30.66770752 2.15244385 -29.44479004 2.47285645 -28.18481445 2.80297852 C-27.54146149 2.96758575 -26.89810852 3.13219299 -26.23526001 3.30178833 C10.41640106 12.73049335 10.41640106 12.73049335 20.9296875 26.1875 C22.84702038 29.43437028 23.53123747 32.25262215 23 36 C17.85968987 49.28337569 2.42762103 56.25252811 -9.77685547 61.69604492 C-32.36330566 71.30977864 -57.58075414 76.77934671 -82 79 C-82.94568848 79.08757568 -83.89137695 79.17515137 -84.86572266 79.26538086 C-94.54671507 80.06299901 -104.19250588 80.18617478 -113.90185547 80.18530273 C-116.60009783 80.18747991 -119.29792367 80.20568433 -121.99609375 80.22460938 C-137.48249294 80.27521046 -153.05194141 79.42260742 -168.25 76.25 C-169.0651709 76.08153564 -169.8803418 75.91307129 -170.72021484 75.73950195 C-185.22289923 72.56801097 -200.05479738 67.57919119 -209 55 C-212.20405684 49.80761002 -211.5448847 43.88050894 -211 38 C-207.83553229 25.61822367 -194.42811175 16.19889882 -184.15722656 9.86328125 C-160.90709789 -3.91979958 -134.50530614 -10.16033756 -108 -14 C-106.84242188 -14.18433594 -105.68484375 -14.36867187 -104.4921875 -14.55859375 C-70.57114535 -18.62895368 -30.91038299 -14.73786193 0 0 Z " fill="#FEFDFA" transform="translate(263,270)"/>
<path d="M0 0 C18.86496721 9.74964681 33.81361583 25.54999971 40.44970703 45.80078125 C43.00500406 59.74106504 40.24373367 73.78100211 32.51611328 85.62109375 C20.78322076 101.98683402 3.40256689 110.4230852 -16.15576172 113.953125 C-41.1322831 117.59342771 -66.98767491 112.98852361 -87.76904297 98.078125 C-100.81754247 87.94029231 -110.49843438 76.70584081 -113.15576172 59.953125 C-114.5636617 41.6330705 -110.7789875 27.83431437 -99.05810547 13.36328125 C-71.64309704 -18.01650794 -36.37665351 -17.8634535 0 0 Z " fill="#FEFDFA" transform="translate(468.15576171875,309.046875)"/>
<path d="M0 0 C9.65689064 8.86404247 17.40266462 19.01313664 18.58203125 32.5078125 C18.82681466 44.84897633 14.16713052 55.22171832 5.87890625 64.30859375 C-5.33872379 74.84636743 -22.53132273 81.90085825 -37.62109375 84.18359375 C-38.65169922 84.34794922 -38.65169922 84.34794922 -39.703125 84.515625 C-62.26814725 87.56495233 -85.92003232 82.33878582 -104.62109375 69.18359375 C-116.07250109 60.3090047 -125.61221763 49.72180828 -128.62109375 35.18359375 C-129.82575433 23.17648504 -126.15220677 12.51448552 -118.62109375 3.18359375 C-107.52740242 -9.83625497 -92.15382077 -16.72597493 -75.62109375 -19.81640625 C-74.91339844 -19.94917969 -74.20570313 -20.08195312 -73.4765625 -20.21875 C-49.08470609 -23.9673932 -18.80714298 -15.96946812 0 0 Z " fill="#FEFDFA" transform="translate(340.62109375,97.81640625)"/>
<path d="M0 0 C1.2065625 0.0309375 1.2065625 0.0309375 2.4375 0.0625 C6.36464042 7.10239688 9.12807821 14.4415974 11.83447266 22.00756836 C13.79396336 27.44598993 15.97471109 32.67294248 18.58984375 37.8359375 C19.56592291 40.39983206 19.66666568 42.34057293 19.4375 45.0625 C18.4375 46.0625 18.4375 46.0625 15.375 46.125 C14.405625 46.104375 13.43625 46.08375 12.4375 46.0625 C11.16148669 43.56502977 9.89163829 41.06472064 8.625 38.5625 C8.26857422 37.86640625 7.91214844 37.1703125 7.54492188 36.453125 C5.17039792 31.74764633 3.20975026 27.02703699 1.4375 22.0625 C0.09304072 59.25920666 5.91598097 100.26252497 31.4375 129.0625 C32.02789063 129.74699219 32.61828125 130.43148437 33.2265625 131.13671875 C47.93921978 147.07021355 69.48048874 153.9432902 90.63671875 154.98999023 C103.38465495 155.3897091 115.29409988 152.61078429 127.4375 149.0625 C126.68210937 148.3096875 125.92671875 147.556875 125.1484375 146.78125 C113.15183709 134.75007725 105.54498837 121.49918284 105.0625 104.1875 C105.59053918 84.96687399 112.74842949 70.09497265 126.4375 57.0625 C135.54104997 48.66585448 147.04273314 44.71374343 159.2734375 44.84765625 C169.15249722 45.5184566 177.45245005 49.61986704 184.1875 56.8125 C193.04455606 67.48949909 193.42339563 79.79992032 192.4375 93.0625 C190.52373253 106.20992696 183.97356428 118.09787951 175.4375 128.0625 C174.79296875 128.86300781 174.1484375 129.66351562 173.484375 130.48828125 C167.37035545 137.76849342 160.23202534 142.77231779 152.4375 148.0625 C151.09666642 149.05242075 149.75938887 150.04741991 148.4375 151.0625 C174.41031049 159.56869867 197.91756488 159.35566829 222.67333984 147.25585938 C236.95824051 139.91944263 249.01420951 130.25138645 260.4375 119.0625 C261.64986328 117.92554688 261.64986328 117.92554688 262.88671875 116.765625 C281.89504791 98.58662957 294.73741311 74.46512509 301.45703125 49.234375 C302.4375 46.0625 302.4375 46.0625 304.4375 44.0625 C307.97321429 44.59821429 307.97321429 44.59821429 309.4375 46.0625 C311.65941163 67.54097906 294.49375875 93.06973046 281.79394531 109.14257812 C278.15623694 113.58652757 274.3474598 117.857473 270.4375 122.0625 C269.59574219 122.97515625 268.75398438 123.8878125 267.88671875 124.828125 C248.01453259 145.51341206 218.8714154 165.41021145 189.34765625 166.265625 C173.83026516 166.47540919 160.43875637 165.07124966 145.97680664 159.13232422 C138.76293357 156.20113296 133.93271363 155.45830882 126.625 158.3125 C102.58086421 167.01975411 74.99797511 166.72775452 51.67578125 155.8203125 C41.93342877 150.53194264 33.33931891 143.82371715 25.4375 136.0625 C24.83679688 135.4746875 24.23609375 134.886875 23.6171875 134.28125 C-3.81515291 105.19020994 -7.81508539 61.89984837 -8.5625 24.0625 C-9.14515625 25.08085938 -9.7278125 26.09921875 -10.328125 27.1484375 C-16.64264601 38.08499476 -23.39665236 48.66408154 -30.5625 59.0625 C-31.11679687 59.88621094 -31.67109375 60.70992187 -32.2421875 61.55859375 C-33.5625 63.0625 -33.5625 63.0625 -36.25 63.3125 C-37.013125 63.23 -37.77625 63.1475 -38.5625 63.0625 C-39.33203125 61.0234375 -39.33203125 61.0234375 -39.5625 58.0625 C-38.231378 55.41222115 -36.8940477 53.1289849 -35.25 50.6875 C-34.78996582 49.97835449 -34.32993164 49.26920898 -33.85595703 48.53857422 C-30.55107245 43.46672164 -27.15027532 38.45633103 -23.75683594 33.44335938 C-18.54041162 25.66114928 -13.70886594 17.63044537 -8.83154297 9.63330078 C-8.16396973 8.54001465 -7.49639648 7.44672852 -6.80859375 6.3203125 C-6.20716553 5.3317627 -5.6057373 4.34321289 -4.98608398 3.32470703 C-2.93898867 0.07168265 -2.93898867 0.07168265 0 0 Z " fill="#CACDC0" transform="translate(651.5625,679.9375)"/>
<path d="M0 0 C8.30088209 6.55332796 13.51175652 16.21586663 14.96875 26.59375 C16.3334684 43.61917133 10.27777625 57.06881701 -0.52734375 69.83203125 C-18.50461651 89.66031805 -41.93796783 100.09694854 -68.03125 104.59375 C-69.17980469 104.79484375 -69.17980469 104.79484375 -70.3515625 105 C-80.46726251 106.42809883 -95.25393329 107.65652391 -105.03125 104.59375 C-111.79524248 99.2178903 -114.35904713 88.63265743 -115.75 80.3671875 C-118.03172802 57.86681397 -112.4275825 36.76444066 -98.28515625 19.11279297 C-74.93796316 -9.17113137 -31.71421835 -21.95599732 0 0 Z " fill="#FEFDFA" transform="translate(223.03125,696.40625)"/>
<path d="M0 0 C3.1917629 0.01604756 6.38225024 0.00006769 9.57397461 -0.01904297 C39.10783503 -0.0506837 71.49314613 3.67280046 94.39233398 24.39111328 C95.34172852 25.220625 95.34172852 25.220625 96.31030273 26.06689453 C103.5283491 32.76167101 109.22343583 42.70399788 109.82592773 52.68798828 C109.84934757 54.17217909 109.8500714 55.65687567 109.82983398 57.14111328 C109.81847412 58.32072632 109.81847412 58.32072632 109.80688477 59.52416992 C109.61537842 66.35619364 108.24652535 72.15483935 105.39233398 78.39111328 C104.99143555 79.29990234 104.59053711 80.20869141 104.17749023 81.14501953 C94.88909731 100.0718028 75.95672123 113.68954824 56.49658203 120.72387695 C45.52839151 124.30824437 32.80969826 125.01036881 21.39233398 123.39111328 C20.73233398 122.73111328 20.07233398 122.07111328 19.39233398 121.39111328 C19.94788954 116.83555773 19.94788954 116.83555773 21.39233398 115.39111328 C23.40163883 115.2954321 25.4115052 115.20653825 27.42236328 115.15258789 C47.43842317 114.56790977 66.26433369 109.12174809 81.39233398 95.39111328 C82.07553711 94.78783203 82.75874023 94.18455078 83.46264648 93.56298828 C93.6060994 84.07519582 100.35341449 71.77783909 100.82983398 57.70361328 C100.29191338 46.12151033 95.6085619 38.18854151 87.32983398 30.26611328 C82.72493662 26.50615122 73.57749859 20.39111328 67.39233398 20.39111328 C67.68108398 20.95056641 67.96983398 21.51001953 68.26733398 22.08642578 C73.15413442 32.64055728 72.56584176 43.32162742 68.76342773 54.17626953 C59.86943712 75.03027031 43.10969349 87.88687256 22.52124023 96.20361328 C20.97243164 96.79142578 20.97243164 96.79142578 19.39233398 97.39111328 C18.35399414 97.79330078 18.35399414 97.79330078 17.29467773 98.20361328 C8.81238441 100.8881193 -3.44163959 100.79606687 -11.65454102 97.42626953 C-19.49600113 93.27029567 -24.76985977 87.90453203 -27.60766602 79.39111328 C-28.74639088 65.00376255 -24.29000629 53.31144205 -15.05688477 42.24267578 C-0.17946142 25.18155742 18.08961005 15.85931775 40.39233398 12.39111328 C29.4005018 10.34036346 18.67294232 10.08113268 7.52612305 10.13037109 C4.66099634 10.14104376 1.79650367 10.13044451 -1.06860352 10.11767578 C-16.60582845 10.10487761 -31.80940831 11.24841217 -47.04516602 14.45361328 C-48.03033203 14.65986328 -49.01549805 14.86611328 -50.03051758 15.07861328 C-66.72847736 18.77881845 -82.91640264 24.64717864 -98.60766602 31.39111328 C-96.4396391 32.47512674 -95.0164488 32.62202177 -92.61547852 32.82080078 C-91.82786133 32.89427734 -91.04024414 32.96775391 -90.22875977 33.04345703 C-88.57312443 33.19114281 -86.91685013 33.33184252 -85.26000977 33.46533203 C-77.8170805 34.1816988 -77.8170805 34.1816988 -74.60766602 37.39111328 C-74.98266602 39.82861328 -74.98266602 39.82861328 -75.60766602 42.39111328 C-82.06711844 45.6208395 -92.95885595 42.98467347 -99.88427734 42.32910156 C-101.24977989 42.20301487 -102.6160445 42.08494224 -103.98291016 41.97460938 C-105.98041142 41.81320956 -107.97576856 41.62593273 -109.97094727 41.43798828 C-111.14955322 41.33325195 -112.32815918 41.22851562 -113.54248047 41.12060547 C-117.07888517 40.2789665 -118.42232382 39.25722962 -120.60766602 36.39111328 C-120.61538776 31.8121175 -117.91487777 28.21398715 -115.54516602 24.45361328 C-113.06779558 20.46096768 -110.61969889 16.48025186 -108.40844727 12.33251953 C-107.88939819 11.37043579 -107.88939819 11.37043579 -107.35986328 10.38891602 C-106.40587041 8.60619267 -105.46728188 6.81525127 -104.52954102 5.02392578 C-102.60766602 2.39111328 -102.60766602 2.39111328 -99.87329102 1.50830078 C-98.75180664 1.45029297 -98.75180664 1.45029297 -97.60766602 1.39111328 C-96.62735373 3.95224328 -96.40391565 5.7786698 -97.27514648 8.39746094 C-98.30580647 10.70047758 -99.40399343 12.95333411 -100.54516602 15.20361328 C-100.93124023 15.991875 -101.31731445 16.78013672 -101.71508789 17.59228516 C-102.66697616 19.53131682 -103.63569939 21.46206793 -104.60766602 23.39111328 C-103.93413086 23.11436768 -103.2605957 22.83762207 -102.56665039 22.55249023 C-86.18842743 15.84685277 -70.10340796 9.80909876 -52.85766602 5.76611328 C-52.03758057 5.57170654 -51.21749512 5.3772998 -50.37255859 5.17700195 C-47.45968569 4.52325034 -44.5412741 3.94520371 -41.60766602 3.39111328 C-40.59357162 3.19838837 -40.59357162 3.19838837 -39.55899048 3.00177002 C-26.34824545 0.56357852 -13.41854762 -0.07986621 0 0 Z " fill="#CACDC0" transform="translate(504.607666015625,565.60888671875)"/>
<path d="M0 0 C0.66530228 -0.00058914 1.33060455 -0.00117828 2.0160675 -0.00178528 C26.79248021 -0.01720424 51.39132515 0.87161938 76.0625 3.25 C76.80300598 3.32025391 77.54351196 3.39050781 78.30645752 3.46289062 C128.87565542 8.30554015 196.4044862 14.94180329 238.0625 46.25 C239.01189453 46.93642578 239.01189453 46.93642578 239.98046875 47.63671875 C245.4805435 51.91716072 249.32155937 57.02121688 250.54296875 63.9921875 C250.9470507 71.87724619 248.55542154 76.28389944 243.4765625 82.05078125 C212.9786541 112.08256441 146.51291439 109.44048405 106.65625 109.3828125 C104.95446763 109.38349011 103.25268536 109.38446388 101.55090332 109.38571167 C98.01146509 109.38717042 94.4720524 109.38509589 90.93261719 109.38037109 C86.48331248 109.37470911 82.03406802 109.37804192 77.58476543 109.38380337 C51.42173186 109.4127015 25.34261055 109.04553563 -0.75 106.9375 C-1.5556842 106.87375183 -2.36136841 106.81000366 -3.19146729 106.74432373 C-110.71846525 98.20174026 -110.71846525 98.20174026 -137.9375 80.25 C-138.50855469 79.87359375 -139.07960938 79.4971875 -139.66796875 79.109375 C-144.44772997 75.56881113 -147.15684737 71.00734675 -148.35546875 65.23828125 C-148.77112639 59.5201802 -146.58496512 55.5254485 -142.9375 51.25 C-118.59838138 26.85931545 -64.33148586 25.13797794 -31.9375 24.25 C-31.06061523 24.22276855 -30.18373047 24.19553711 -29.28027344 24.16748047 C-26.52014815 24.09062234 -23.76088207 24.04039348 -21 24 C-20.14043701 23.97848877 -19.28087402 23.95697754 -18.39526367 23.93481445 C-17.59580322 23.93054443 -16.79634277 23.92627441 -15.97265625 23.921875 C-14.91123413 23.90785645 -14.91123413 23.90785645 -13.82836914 23.89355469 C-11.34716511 24.36128327 -10.44442101 25.25738698 -8.9375 27.25 C-9.0625 29.8125 -9.0625 29.8125 -9.9375 32.25 C-13.83486571 34.84824381 -17.33148838 34.73570211 -21.87109375 34.9609375 C-23.7221079 35.06970633 -25.57309991 35.17885241 -27.42407227 35.28833008 C-28.3954715 35.34276276 -29.36687073 35.39719543 -30.3677063 35.45327759 C-85.52909494 36.89010535 -85.52909494 36.89010535 -134.6328125 57.6796875 C-137.0020568 60.53129291 -137.26635106 62.63263835 -136.9375 66.25 C-121.89711874 85.84807255 -83.65746452 86.80205918 -61.22879028 89.76599121 C-42.83749223 92.15492845 -24.43588208 93.95516268 -5.9375 95.25 C-5.25125549 95.29878296 -4.56501099 95.34756592 -3.85797119 95.39782715 C0.94787998 95.73896285 5.75463056 96.06363521 10.5625 96.375 C11.72821533 96.45073242 12.89393066 96.52646484 14.0949707 96.60449219 C37.40493025 98.01712016 60.71342652 98.45800905 84.0625 98.4375 C84.74829006 98.43723312 85.43408012 98.43696625 86.1406517 98.43669128 C164.75946908 101.15763779 164.75946908 101.15763779 235.84765625 74.78125 C238.26273317 72.2518101 239.06443727 70.239345 239.6875 66.8125 C238.50045464 60.04634145 235.16407324 56.81554448 229.72143555 52.95996094 C205.73808222 36.97332633 174.74238507 31.26254761 147.0625 25.25 C146.1329248 25.04777832 145.20334961 24.84555664 144.24560547 24.63720703 C127.36586808 21.03849782 110.21461772 18.78838187 93.11401367 16.52209473 C91.23908647 16.27342088 89.36463414 16.02117336 87.49023438 15.76855469 C10.06217516 5.57823079 -71.58189835 10.31337844 -148.30737305 23.86010742 C-151.92401064 24.3962413 -155.28872442 24.45653447 -158.9375 24.25 C-159.9375 23.25 -159.9375 23.25 -160.3125 20.375 C-160.18875 19.34375 -160.065 18.3125 -159.9375 17.25 C-156.30895827 14.50044519 -152.85628988 13.60211837 -148.42578125 12.78515625 C-146.48046509 12.42417847 -146.48046509 12.42417847 -144.49584961 12.0559082 C-143.08079802 11.80678624 -141.66550672 11.55902275 -140.25 11.3125 C-139.52265656 11.18338226 -138.79531311 11.05426453 -138.04592896 10.92123413 C-108.99070877 5.78659957 -79.66878043 3.28114553 -50.2437439 1.39788818 C-48.73840092 1.30135787 -47.23320213 1.20254417 -45.72817993 1.10113525 C-30.49583814 0.08767131 -15.26167364 0.00802178 0 0 Z " fill="#CBCDC1" transform="translate(727.9375,257.75)"/>
<path d="M0 0 C5.11488942 0.47991436 8.57754854 2.29496819 12.7421875 5.12890625 C13.37970947 5.55072174 14.01723145 5.97253723 14.67407227 6.40713501 C16.74770654 7.7825399 18.81131714 9.17221846 20.875 10.5625 C22.30425353 11.51497482 23.7341091 12.46654683 25.16455078 13.41723633 C28.05614456 15.34131806 30.94375566 17.27116054 33.828125 19.20605469 C37.66709902 21.78019385 41.5186605 24.33478875 45.375 26.8828125 C47.54210395 28.31704958 49.70858172 29.75222692 51.875 31.1875 C52.87772949 31.85144775 53.88045898 32.51539551 54.91357422 33.19946289 C55.8263916 33.80781982 56.73920898 34.41617676 57.6796875 35.04296875 C58.47101074 35.56914795 59.26233398 36.09532715 60.07763672 36.63745117 C62 38 62 38 64 40 C63.625 42.625 63.625 42.625 63 45 C60.91796875 45.765625 60.91796875 45.765625 58 46 C55.57078614 44.68102461 53.52332481 43.370996 51.3125 41.75 C49.98670065 40.82089127 48.6584647 39.89525216 47.328125 38.97265625 C46.62880859 38.48555176 45.92949219 37.99844727 45.20898438 37.49658203 C41.41098891 34.9234485 37.48872052 32.55851071 33.5625 30.1875 C32.10546196 29.3060008 30.6484305 28.42449074 29.19140625 27.54296875 C28.50320801 27.12708496 27.81500977 26.71120117 27.10595703 26.28271484 C23.71809311 24.21920487 20.35779463 22.11198776 17 20 C17.56267578 21.62228516 17.56267578 21.62228516 18.13671875 23.27734375 C24.75425554 42.88011279 28.46186533 61.80872045 28.5 82.5 C28.50673737 83.61881058 28.50673737 83.61881058 28.51361084 84.76022339 C28.5495109 99.39312779 26.67608317 113.61200934 21.875 127.5 C21.577146 128.37382324 21.27929199 129.24764648 20.97241211 130.14794922 C9.83119711 161.57628054 -13.13465528 185.50091807 -42.75439453 200.1809082 C-47.7475686 202.55072244 -52.83177948 204.53186521 -58.0625 206.3125 C-58.73313477 206.54283936 -59.40376953 206.77317871 -60.09472656 207.01049805 C-72.62277809 211.04583379 -85.01950418 212.58368551 -98.125 212.5 C-98.83934204 212.49890228 -99.55368408 212.49780457 -100.28967285 212.49667358 C-112.71563889 212.44217373 -124.17791968 210.92861113 -136 207 C-137.175625 206.62746094 -138.35125 206.25492188 -139.5625 205.87109375 C-156.25923203 199.99859119 -175.76128767 189.99904871 -186 175 C-186.46535156 174.02546875 -186.93070313 173.0509375 -187.41015625 172.046875 C-190.20905919 166.23431952 -192.2909391 162.76504036 -198.54077148 160.43481445 C-200.64229082 159.74431876 -202.74971694 159.07532874 -204.859375 158.41015625 C-222.64803091 152.72058383 -233.8931747 138.90831534 -242.53125 123.21875 C-251.9200276 104.21220023 -252.65428094 82.96755882 -246 63 C-236.88955399 37.42410388 -219.70421538 19.16005395 -195.37109375 7.53125 C-190.11438092 5.14349632 -186.69049845 4.72902388 -181 5 C-179 7 -179 7 -178.875 9.4375 C-180 12 -180 12 -183.58203125 13.4296875 C-184.30455078 13.68194092 -185.02707031 13.93419434 -185.77148438 14.1940918 C-207.66662141 22.11212941 -222.86735438 36.38124866 -233.1875 57.125 C-241.63168703 76.23195404 -242.48009429 96.63312341 -235.1875 116.375 C-233.37436458 120.57531371 -231.01686014 124.2716627 -228.3671875 127.9921875 C-227 130 -227 130 -226.0703125 132.1328125 C-224.71432442 134.49836834 -223.44324223 134.86853542 -221 136 C-219.68127707 137.20009304 -218.39195116 138.43287327 -217.125 139.6875 C-211.45997385 144.87806835 -204.92473794 147.84791445 -198 151 C-198.27714844 150.14277344 -198.55429688 149.28554688 -198.83984375 148.40234375 C-206.22370961 125.09455366 -203.08656337 102.60150797 -192.6875 80.6875 C-189.44378663 74.4592901 -185.6281937 69.25456578 -181 64 C-180.33484375 63.18015625 -179.6696875 62.3603125 -178.984375 61.515625 C-166.31337279 46.40428163 -146.67316789 35.34297355 -127 33 C-122.74815987 32.70182266 -118.51162255 32.5949521 -114.25 32.5625 C-113.22084473 32.55226807 -112.19168945 32.54203613 -111.13134766 32.53149414 C-94.45637472 32.72216431 -79.42294536 38.61655295 -67.41015625 50.2578125 C-58.62188727 60.25678304 -54.40832136 71.44532522 -54.5 84.625 C-54.50572021 85.58704346 -54.51144043 86.54908691 -54.51733398 87.5402832 C-54.96921551 105.76617149 -63.68748171 119.15028633 -76 132 C-76.62519531 132.68835938 -77.25039062 133.37671875 -77.89453125 134.0859375 C-96.87665711 154.30689683 -128.70349416 166.0641198 -156 167 C-163.33334584 167.09571773 -170.66651268 167.0630775 -178 167 C-162.78430548 188.33360697 -137.67783111 197.77922991 -112.6875 202.1875 C-83.02375301 206.39487293 -50.76045671 197.51260998 -26.72851562 179.73583984 C-0.43680235 159.57938071 14.27911894 131.64472312 19 99 C20.53059437 71.43074869 18.18038691 42.71240781 5 18 C4.85900879 18.91813477 4.71801758 19.83626953 4.57275391 20.78222656 C4.04506016 24.19732568 3.51137479 27.61137684 2.97363281 31.02490234 C2.74239162 32.50076528 2.51352523 33.97700238 2.28710938 35.45361328 C1.96071266 37.57948662 1.6257192 39.70385536 1.2890625 41.828125 C0.99056396 43.7447998 0.99056396 43.7447998 0.68603516 45.70019531 C0.09984772 48.51973601 -0.54574418 50.54560542 -2 53 C-4.375 53.125 -4.375 53.125 -7 53 C-9 51 -9 51 -9.046875 48.64331055 C-8.27492377 40.98791594 -7.22945179 33.40748298 -6 25.8125 C-5.64400889 23.59013523 -5.28980697 21.36748303 -4.9375 19.14453125 C-4.7717749 18.09918213 -4.6060498 17.05383301 -4.43530273 15.97680664 C-4.03985933 13.27257701 -3.73552237 10.57912303 -3.47265625 7.859375 C-3.01652586 4.13493839 -2.60876018 2.60876018 0 0 Z M-174.234375 68.953125 C-189.1306995 86.22231535 -195.44144893 107.39060661 -194 130 C-192.83486491 139.42969503 -190.07797084 147.92333886 -185 156 C-169.29796093 163.85101954 -140.97702092 156.95149196 -125.19140625 152.0859375 C-101.79677767 144.12546413 -79.49329045 129.60113519 -68 107 C-62.69556057 95.35403524 -60.58878402 82.3879744 -65 70 C-70.24795295 58.31587834 -78.19762345 50.81859324 -89.98046875 45.70703125 C-120.36818677 34.34751992 -152.60039602 46.22835716 -174.234375 68.953125 Z " fill="#CACDC1" transform="translate(301,644)"/>
<path d="M0 0 C0.96325195 0.15130371 1.92650391 0.30260742 2.91894531 0.45849609 C24.57314819 3.9338193 45.81926274 9.37283382 67 15 C68.07620605 15.28584961 69.15241211 15.57169922 70.26123047 15.86621094 C71.14311035 16.1140332 72.02499023 16.36185547 72.93359375 16.6171875 C73.64443115 16.81683105 74.35526855 17.01647461 75.08764648 17.22216797 C77.41814814 18.17007787 79.12169321 19.32929963 81 21 C81.375 23.5625 81.375 23.5625 81 26 C80.34 26.66 79.68 27.32 79 28 C73.86605979 27.68720364 69.14090732 26.24194662 64.22851562 24.77905273 C11.49507928 9.10211674 -42.99710221 4.28044327 -97.77532959 4.9732666 C-99.69082076 4.99628466 -101.60639687 5.01202626 -103.52197266 5.02636719 C-132.75814597 5.30846635 -162.6844408 9.88440666 -191 17 C-191.82918945 17.20592773 -192.65837891 17.41185547 -193.51269531 17.62402344 C-209.127645 21.59549393 -224.93353484 27.43762727 -238 37 C-238.87011719 37.61488281 -239.74023438 38.22976563 -240.63671875 38.86328125 C-247.99551289 44.3521277 -255.21023923 51.65347155 -257 61 C-257.78083022 67.60607155 -256.82685495 72.5206395 -253 78 C-243.88428666 89.39464167 -230.44775646 94.56133068 -217 99 C-216.34918457 99.21897949 -215.69836914 99.43795898 -215.02783203 99.66357422 C-190.511582 107.72580133 -163.60565102 109.94036859 -138 112 C-136.34677734 112.14465698 -136.34677734 112.14465698 -134.66015625 112.29223633 C-121.49452836 113.2966521 -108.29318579 113.18726994 -95.09716797 113.18530273 C-92.30738738 113.18522223 -89.51777368 113.19205538 -86.72802734 113.20581055 C-60.61209831 113.33227017 -34.65876513 112.30237391 -8.75 108.75 C-7.96113403 108.6442868 -7.17226807 108.53857361 -6.35949707 108.42965698 C7.97416143 106.49291309 22.04803421 103.86593553 36 100 C36.84385254 99.76700195 37.68770508 99.53400391 38.55712891 99.29394531 C53.54853831 95.02444972 72.00710692 88.48933962 81 75 C82.49420081 70.51739756 83.0090972 67.22792833 81.00390625 62.80078125 C70.30928131 44.95620875 44.61503419 39.4646145 25.93164062 34.72998047 C24.96419922 34.48908691 23.99675781 34.24819336 23 34 C22.17951172 33.79391113 21.35902344 33.58782227 20.51367188 33.37548828 C1.84430394 28.79613389 -17.87685606 26.16126162 -37.06323242 25.44799805 C-40.2394895 24.96346635 -41.65501826 24.14013932 -44 22 C-43.625 19.0625 -43.625 19.0625 -43 16 C-21.76876621 5.38438311 26.82988974 22.97123602 48 30 C64.18203205 35.56343794 81.23921359 42.84433383 90.16015625 58.2734375 C92.95749771 64.02425111 93.06539767 70.60466725 91.1640625 76.6640625 C83.75619794 92.72272191 67.05976213 100.36083499 51.30151367 106.18481445 C21.27999625 116.80214783 -10.41167702 120.52003012 -42 123 C-43.00598236 123.08292297 -44.01196472 123.16584595 -45.0484314 123.25128174 C-53.53182857 123.91312758 -61.96125581 124.17326153 -70.46875 124.203125 C-71.82531259 124.21010665 -73.18187489 124.21714758 -74.53843689 124.22424316 C-78.85896199 124.2435448 -83.17943649 124.24842049 -87.5 124.25 C-88.60383467 124.25088371 -88.60383467 124.25088371 -89.72996902 124.25178528 C-113.26269308 124.26508452 -136.60903897 123.81095644 -160 121 C-161.87558594 120.77521973 -161.87558594 120.77521973 -163.7890625 120.54589844 C-239.29689246 111.10741969 -239.29689246 111.10741969 -260.375 85.125 C-265.98276689 76.93638585 -268.28626173 68.92259051 -267 59 C-265.18452234 51.94207562 -261.58723384 46.55551538 -257 41 C-255.948125 39.5459375 -255.948125 39.5459375 -254.875 38.0625 C-225.26755955 3.37949833 -162.10665224 -1.82232614 -120.1875 -5.1875 C-80.31807154 -7.98270124 -39.46866977 -6.37942001 0 0 Z " fill="#CBCDC1" transform="translate(863,415)"/>
<path d="M0 0 C3.78871218 -0.00435651 7.57623965 -0.04077245 11.36474609 -0.07861328 C34.09974985 -0.18507603 56.30895509 2.28042045 78.25927734 8.30810547 C79.50257813 8.62972656 80.74587891 8.95134766 82.02685547 9.28271484 C104.31710662 15.20265059 104.31710662 15.20265059 110.82177734 21.37060547 C111.13427734 24.49560547 111.13427734 24.49560547 110.82177734 27.37060547 C110.82177734 28.03060547 110.82177734 28.69060547 110.82177734 29.37060547 C112.59032847 30.50475247 114.41493568 31.5518916 116.25927734 32.55810547 C121.87301533 35.74802953 126.92199979 39.17079614 131.82177734 43.37060547 C132.44826172 43.90169922 133.07474609 44.43279297 133.72021484 44.97998047 C140.54842716 51.24165989 146.28724039 60.7131907 147.03662109 70.04638672 C147.45309107 83.15686167 143.16227802 93.63035644 134.57177734 103.43310547 C110.91726269 128.60493274 77.76561595 139.29414294 44.82177734 146.37060547 C43.94231445 146.56638184 43.06285156 146.7621582 42.15673828 146.96386719 C4.12742795 155.36671557 -36.70208928 156.20555612 -75.17822266 150.37060547 C-76.16790039 150.22075195 -77.15757812 150.07089844 -78.17724609 149.91650391 C-107.4054997 145.32919719 -143.05151484 137.92733205 -162.99072266 114.12060547 C-171.01710336 102.95594795 -172.65722765 92.05057837 -170.80712891 78.69091797 C-167.45367297 64.95331227 -158.09910699 53.02456018 -148.17822266 43.37060547 C-147.51177734 42.70673828 -146.84533203 42.04287109 -146.15869141 41.35888672 C-120.34336568 17.17400262 -79.12308342 6.74046308 -45.17822266 2.37060547 C-44.51665161 2.28373474 -43.85508057 2.19686401 -43.17346191 2.10736084 C-28.79870613 0.27705991 -14.47850596 -0.00185313 0 0 Z M-48.17822266 14.37060547 C-49.77996338 14.62801514 -49.77996338 14.62801514 -51.4140625 14.890625 C-84.05563104 20.23301423 -127.48873802 30.42511776 -148.71191406 58.39160156 C-156.66656893 69.58230336 -162.55588674 79.24024009 -161.17822266 93.37060547 C-158.64875353 105.37641907 -150.4704398 113.77778715 -140.49072266 120.37060547 C-84.64224625 153.19609564 -2.51359896 148.54477581 57.75927734 132.99560547 C85.48652463 125.47377286 118.03216368 113.56864733 133.57958984 87.71826172 C137.15737505 80.9564727 137.13288455 71.65996051 134.91552734 64.40576172 C133.71133262 61.9008823 132.39824177 59.65794245 130.82177734 57.37060547 C130.38736328 56.73767578 129.95294922 56.10474609 129.50537109 55.45263672 C113.08084263 34.25516836 79.60099538 28.42257421 54.87394714 25.1096344 C48.89324333 24.37234758 42.97223041 24.19043445 36.95068359 24.12451172 C34.89273583 24.0916233 32.83479323 24.05841095 30.77685547 24.02490234 C27.56179802 23.97722612 24.34676858 23.9326522 21.1315918 23.89379883 C18.00859251 23.85427917 14.88597482 23.80274999 11.76318359 23.74951172 C10.31172691 23.73689049 10.31172691 23.73689049 8.83094788 23.72401428 C7.49331642 23.69905128 7.49331642 23.69905128 6.12866211 23.67358398 C5.34306412 23.66327652 4.55746613 23.65296906 3.74806213 23.64234924 C1.82177734 23.37060547 1.82177734 23.37060547 -0.17822266 21.37060547 C0.3773329 16.81504991 0.3773329 16.81504991 1.82177734 15.37060547 C3.5097972 15.27707384 5.20172942 15.25315756 6.89233398 15.25708008 C7.97337906 15.25715561 9.05442413 15.25723114 10.16822815 15.25730896 C11.93226234 15.26505089 11.93226234 15.26505089 13.73193359 15.27294922 C14.92910507 15.27436417 16.12627655 15.27577911 17.35972595 15.27723694 C21.201268 15.28285568 25.04275277 15.29541136 28.88427734 15.30810547 C31.48128171 15.31311805 34.07828699 15.31768138 36.67529297 15.32177734 C43.05747413 15.33283119 49.43962165 15.34958755 55.82177734 15.37060547 C55.82177734 15.04060547 55.82177734 14.71060547 55.82177734 14.37060547 C53.55137131 14.05501597 51.28042376 13.74332188 49.00927734 13.43310547 C47.74470703 13.25908203 46.48013672 13.08505859 45.17724609 12.90576172 C36.29732609 11.772848 27.49118092 11.20791326 18.54052734 11.16748047 C17.49678452 11.16046616 16.45304169 11.15345184 15.37767029 11.14622498 C12.02566161 11.12881061 8.67382961 11.12237218 5.32177734 11.12060547 C4.17661652 11.11993073 3.03145569 11.11925598 1.85159302 11.11856079 C-15.02359984 11.13437413 -31.50358995 11.54976069 -48.17822266 14.37060547 Z " fill="#CBCDC1" transform="translate(838.17822265625,61.62939453125)"/>
<path d="M0 0 C1.73547592 0.00040787 1.73547592 0.00040787 3.50601196 0.00082397 C39.27010493 0.03898292 74.91500177 1.59412192 110.5 5.1875 C111.67208008 5.30206543 112.84416016 5.41663086 114.05175781 5.53466797 C144.67170918 8.57022861 177.04599564 12.92110943 205.5 25.1875 C206.46035156 25.59742188 207.42070313 26.00734375 208.41015625 26.4296875 C215.35423471 29.63464679 221.16115319 33.75231874 225.5 40.125 C227.02448995 44.79375046 227.46475402 48.63918509 225.7265625 53.23046875 C218.31321039 66.82161428 199.52699757 72.4391497 185.63427734 76.57861328 C132.09678804 91.85229188 74.41037444 94.42135069 19.0625 94.375 C17.83030731 94.37472809 16.59811462 94.37445618 15.32858276 94.37417603 C-15.73066456 94.34289632 -46.70982637 93.53921384 -77.5 89.1875 C-78.78277832 89.01347656 -80.06555664 88.83945312 -81.38720703 88.66015625 C-159.46358528 78.04757934 -159.46358528 78.04757934 -179.5 55.1875 C-182.71408385 49.73002876 -183.37614576 45.40202223 -182.5 39.1875 C-177.078172 27.40091739 -163.97314599 21.5522838 -152.5 17.1875 C-119.45038966 5.65645463 -83.22751955 2.92343099 -48.5 1.1875 C-47.28138275 1.12394821 -47.28138275 1.12394821 -46.03814697 1.05911255 C-30.68844088 0.26879265 -15.36899965 -0.0137644 0 0 Z M-67.30058289 11.93994141 C-71.35866618 12.25394029 -75.41881856 12.53310915 -79.479599 12.80969238 C-109.2171534 15.00074931 -150.22008787 18.32246546 -173.1875 39.6875 C-174.73576817 42.21643065 -174.73576817 42.21643065 -174.6875 45.5625 C-172.13972077 53.33993134 -166.24104304 56.65278697 -159.1875 60.25 C-106.73650861 85.64202622 -39.2772818 84.42425139 17.5625 84.375 C18.2571574 84.37473312 18.9518148 84.37446625 19.66752243 84.37419128 C121.57394448 87.30891192 121.57394448 87.30891192 214.5 54.1875 C216.54574176 51.80235108 217.43489231 50.45384963 218.1875 47.375 C217.0703178 42.19533706 213.81764231 40.01674258 209.5 37.1875 C189.43014061 26.38479716 165.67067936 23.15334224 143.5 19.1875 C142.13512451 18.93806641 142.13512451 18.93806641 140.74267578 18.68359375 C125.4486338 15.91476413 109.98026845 14.4515387 94.5 13.1875 C93.67079041 13.1185553 92.84158081 13.0496106 91.98724365 12.97857666 C62.29392454 10.53628708 32.66465183 9.89369175 2.88676453 9.87697983 C0.22996179 9.87503114 -2.42682073 9.86992331 -5.08361816 9.8644104 C-25.8944539 9.83230802 -46.54815303 10.32328817 -67.30058289 11.93994141 Z " fill="#CBCDC1" transform="translate(708.5,884.8125)"/>
<path d="M0 0 C2 2 2 2 2.0234375 4.91796875 C1 8 1 8 -1.7734375 9.80078125 C-2.96195313 10.29964844 -4.15046875 10.79851562 -5.375 11.3125 C-12.55863282 14.55264443 -18.10875498 18.74251013 -24 24 C-24.83015625 24.68707031 -25.6603125 25.37414062 -26.515625 26.08203125 C-33.78079087 32.23914509 -39.32724126 39.41778325 -45 47 C-45.89803477 48.18910634 -46.79646434 49.37791463 -47.6953125 50.56640625 C-49.8092814 53.36843701 -51.90887991 56.18086032 -54 59 C-50.63667732 56.36757607 -47.48353083 53.61409341 -44.375 50.6875 C-23.22041755 31.65149135 4.1556991 24.76059903 32.03955078 25.81347656 C52.00403154 27.07134093 71.11405608 36.31187026 84.8125 50.875 C97.67891128 65.98901967 101.59517591 81.78171972 100.28662109 101.28808594 C97.77280038 125.07302676 81.3831406 146.46982031 63.41015625 161.31298828 C41.22775315 178.62051788 13.78502809 186.45765365 -14.16699219 183.79345703 C-35.22472487 181.17238866 -56.01298826 170.83878765 -69.3125 154.0625 C-71.46488473 151.06604283 -72.97458302 147.97899254 -74.5 144.625 C-76.30134586 140.66969182 -76.30134586 140.66969182 -80.125 138.625 C-81.07375 138.41875 -82.0225 138.2125 -83 138 C-85.09139816 136.20100111 -85.89616049 134.67231686 -86.31689453 131.94824219 C-86.48283466 129.31134146 -86.51822501 126.70467041 -86.5 124.0625 C-86.49355469 123.08684082 -86.48710937 122.11118164 -86.48046875 121.10595703 C-85.54076666 82.72036301 -62.46847907 44.3854511 -35.5 18.1875 C-12.2746114 -2.13471503 -12.2746114 -2.13471503 0 0 Z M-9 42 C-9.64791504 42.22461914 -10.29583008 42.44923828 -10.96337891 42.68066406 C-35.4951946 51.48827179 -53.43544384 71.58932752 -65 94.375 C-70.95368454 107.05334982 -73.55352532 119.60760495 -69.4375 133.375 C-67.1783812 139.25828819 -63.88861626 144.07900774 -60 149 C-59.56171875 149.61359375 -59.1234375 150.2271875 -58.671875 150.859375 C-48.93566954 163.64547615 -31.28290903 171.13509864 -16 174 C-11.63581145 174.43484912 -7.32146937 174.5253904 -2.9375 174.5 C-1.76082764 174.49355469 -0.58415527 174.48710937 0.62817383 174.48046875 C25.74670395 173.96012578 46.92043902 163.02315925 65 146 C65.61746094 145.45859375 66.23492188 144.9171875 66.87109375 144.359375 C79.43708452 132.8671525 89.37373551 112.77215309 90.31640625 95.8671875 C90.75415627 79.75122324 86.50856961 68.12968215 75.37890625 56.21533203 C61.13098352 41.69524724 41.49949883 36.79829633 21.75 36.5 C10.91432299 36.52931923 1.19956342 38.42861137 -9 42 Z " fill="#CBCDC1" transform="translate(516,54)"/>
<path d="M0 0 C0.86704559 -0.00067474 1.73409119 -0.00134949 2.62741089 -0.00204468 C16.72779407 0.01534494 30.48225682 0.65092339 44.375 3.25 C45.79401611 3.51538574 45.79401611 3.51538574 47.24169922 3.78613281 C66.89246667 7.6035441 94.60689455 14.40024465 108.375 30.25 C109.4375 34 109.4375 34 109.375 37.25 C109.375 40.82957834 110.19292457 41.71310605 112.25 44.5625 C116.43509722 50.71647274 117.95473303 55.24214421 116.96484375 62.671875 C114.56646669 73.15484758 106.33846468 80.83045876 97.65820312 86.57519531 C60.18178205 109.95177998 12.40782338 115.47362818 -30.75 115.5625 C-32.02570358 115.56801376 -32.02570358 115.56801376 -33.32717896 115.57363892 C-63.77860372 115.64252604 -101.45195548 113.52921424 -125.79296875 93.09765625 C-132.40750786 86.42670316 -135.61155319 79.26226802 -135.9375 69.875 C-135.6677064 58.24213499 -130.04712159 48.59268803 -122.1875 40.25 C-97.85037595 17.04060517 -61.18307814 5.75754269 -28.625 1.25 C-27.94840332 1.1557373 -27.27180664 1.06147461 -26.57470703 0.96435547 C-17.75717789 -0.09587228 -8.86780648 0.00620207 0 0 Z M-35.625 13.25 C-37.17294415 13.52086578 -38.721123 13.79039371 -40.26953125 14.05859375 C-69.82686915 19.45402993 -103.99982967 31.20180315 -122.46875 56.328125 C-126.29674071 62.69086632 -126.46944784 68.98423008 -125.625 76.25 C-122.26536116 85.51900359 -113.59168906 90.78083099 -105.1015625 94.8046875 C-92.10727544 100.20680684 -78.557304 102.68300518 -64.625 104.25 C-63.35958374 104.39465698 -63.35958374 104.39465698 -62.06860352 104.54223633 C-52.12968304 105.52536041 -42.16440665 105.44833768 -32.1875 105.4375 C-30.78212479 105.43709213 -30.78212479 105.43709213 -29.34835815 105.43667603 C-16.0042196 105.41883073 -2.85322573 105.14823405 10.375 103.25 C11.9023429 103.05337881 13.42968666 102.85676434 14.95703125 102.66015625 C44.22832455 98.65829355 85.39336389 91.17116937 105.25390625 66.890625 C107.92477898 62.98203076 108.88980207 60.23922265 108.08984375 55.39453125 C105.34393022 47.15679067 96.69787392 41.97924135 89.375 38.25 C78.2779113 33.29126155 66.66108269 30.06167772 54.85253906 27.29077148 C53.45600098 26.95348022 53.45600098 26.95348022 52.03125 26.609375 C51.20431641 26.41827148 50.37738281 26.22716797 49.52539062 26.03027344 C47.1145973 25.15551237 45.92992352 24.27854965 44.375 22.25 C44.6875 20.0625 44.6875 20.0625 45.375 18.25 C51.75347097 17.97716367 57.16129711 18.92748872 63.3125 20.5625 C64.57610352 20.88250977 64.57610352 20.88250977 65.86523438 21.20898438 C70.83770204 22.49133747 75.65706072 23.98453494 80.46704102 25.78588867 C82.57664129 26.47806213 82.57664129 26.47806213 85.375 25.25 C48.32666961 9.13480696 3.98292205 5.49383542 -35.625 13.25 Z " fill="#CACDC1" transform="translate(177.625,244.75)"/>
<path d="M0 0 C0.73679993 0.00270905 1.47359985 0.00541809 2.23272705 0.00820923 C40.03066942 0.21816942 40.03066942 0.21816942 51.25 11.4375 C51.5 13.9375 51.5 13.9375 51.25 16.4375 C50.59 17.0975 49.93 17.7575 49.25 18.4375 C44.36531743 18.0474455 39.82341825 16.84457974 35.125 15.5 C21.03347927 11.66410979 7.76308425 11.1699208 -6.75 11.4375 C-5.8528125 11.64503906 -4.955625 11.85257812 -4.03125 12.06640625 C14.58253389 16.66216488 31.74940111 24.70760131 46.25 37.4375 C47.01054687 38.10265625 47.77109375 38.7678125 48.5546875 39.453125 C61.98972387 52.00488909 70.11113053 68.93135416 71.453125 87.203125 C71.76103427 103.52231617 64.93663718 119.52192375 53.74023438 131.33618164 C35.65335454 149.14929748 11.55418061 154.7061466 -12.98950195 154.68408203 C-40.63763711 154.42309879 -64.88067716 144.71522897 -84.9375 125.625 C-97.41376902 112.77718065 -103.24402547 96.92302345 -103.01953125 79.0859375 C-101.42916973 57.55843521 -90.22501959 40.76686318 -75.37890625 25.80078125 C-73.75 24.4375 -73.75 24.4375 -71.75 24.4375 C-71.75 23.7775 -71.75 23.1175 -71.75 22.4375 C-72.77480469 22.84742188 -73.79960937 23.25734375 -74.85546875 23.6796875 C-82.98046875 26.9296875 -82.98046875 26.9296875 -84.94213867 27.70849609 C-86.49223403 28.33355818 -88.02891941 28.99169841 -89.5625 29.65625 C-92.3017935 30.63456911 -93.9931534 30.22517046 -96.75 29.4375 C-97.25 27.25 -97.25 27.25 -96.75 24.4375 C-84.63160674 14.98515326 -67.33899823 9.85368667 -52.0625 9 C-47.69092257 8.73006826 -44.15639515 7.61615165 -40.0625 6.0625 C-26.97445485 1.10165579 -13.8714511 -0.12052045 0 0 Z M-80.02099609 45.08349609 C-91.05493307 60.28609875 -95.06979411 75.13748389 -92.23828125 93.8125 C-91.58542897 96.46919369 -90.78046454 98.90514383 -89.75 101.4375 C-89.42128906 102.27152344 -89.09257812 103.10554688 -88.75390625 103.96484375 C-85.66321967 110.90552054 -81.08211796 116.09634455 -75.75 121.4375 C-75.13382812 122.06527344 -74.51765625 122.69304687 -73.8828125 123.33984375 C-57.37422834 138.96277425 -32.82631581 145.98057468 -10.54492188 145.79345703 C10.1983245 145.18152233 31.01139469 139.06065275 46.25 124.4375 C57.83731389 111.39022152 62.35323408 97.8388764 61.46337891 80.63134766 C60.01124415 65.70127563 49.33693578 51.8875518 38.25 42.4375 C17.2666602 25.47646235 -7.58799848 18.45302199 -34.25 18.0625 C-35.21808594 18.02511719 -36.18617188 17.98773438 -37.18359375 17.94921875 C-54.24235145 17.7431398 -70.10356829 32.23998893 -80.02099609 45.08349609 Z " fill="#CACDC1" transform="translate(447.75,278.5625)"/>
<path d="M0 0 C25.53407628 -0.8493094 51.96506901 8.36401878 71.828125 24.19140625 C72.92253906 25.03832031 72.92253906 25.03832031 74.0390625 25.90234375 C84.16441442 34.16556198 91.18526426 46.17021374 92.828125 59.19140625 C94.0250203 75.69596251 88.77697487 90.23481094 78.078125 102.87890625 C69.19803345 112.00566701 57.82587159 117.35356205 45.828125 121.19140625 C49.26615065 120.38111972 52.70345091 119.56779679 56.140625 118.75390625 C57.11708984 118.52380859 58.09355469 118.29371094 59.09960938 118.05664062 C60.03740234 117.83427734 60.97519531 117.61191406 61.94140625 117.3828125 C63.23751831 117.07645874 63.23751831 117.07645874 64.55981445 116.76391602 C66.33675294 116.315426 68.08950822 115.77094518 69.828125 115.19140625 C73.390625 115.00390625 73.390625 115.00390625 76.828125 115.19140625 C78.828125 117.19140625 78.828125 117.19140625 78.953125 119.81640625 C78.911875 120.60015625 78.870625 121.38390625 78.828125 122.19140625 C52.09270038 137.78707061 13.08674726 133.97216796 -15.67138672 126.85693359 C-45.42573344 118.93754781 -45.42573344 118.93754781 -53.171875 111.19140625 C-52.95660156 110.25296875 -52.74132812 109.31453125 -52.51953125 108.34765625 C-51.78997081 105.12382709 -51.78997081 105.12382709 -53.98046875 102.91015625 C-54.84800781 102.17796875 -55.71554688 101.44578125 -56.609375 100.69140625 C-66.96026394 91.03833005 -73.05133747 78.50537094 -73.56982422 64.33056641 C-73.83149284 47.69684118 -68.15494786 34.78054764 -56.77734375 22.640625 C-41.13478867 7.93615418 -21.07056975 1.2714999 0 0 Z M-54.9921875 36.1953125 C-62.20941443 45.17151183 -65.18633212 55.81499422 -64.171875 67.19140625 C-60.87176505 82.63830645 -50.45402937 94.38899621 -37.484375 102.87890625 C-26.79131724 109.60691107 -15.60613682 113.93369475 -3.171875 116.19140625 C-2.46804688 116.32289063 -1.76421875 116.454375 -1.0390625 116.58984375 C21.0346816 120.00711794 44.2172653 114.29341475 62.828125 102.19140625 C73.16836658 94.36441783 80.08690682 84.97567156 82.828125 72.19140625 C83.90729981 60.36199005 80.08817931 49.98917805 72.890625 40.6875 C57.36965585 22.53350929 33.3345386 13.12976235 9.828125 11.19140625 C-14.9450961 9.44457656 -38.16333185 17.66912592 -54.9921875 36.1953125 Z " fill="#CBCEC1" transform="translate(276.171875,65.80859375)"/>
<path d="M0 0 C1.17296631 0.36013184 1.17296631 0.36013184 2.36962891 0.72753906 C4.65573203 1.4504585 6.92278117 2.21286901 9.1875 3 C9.86603027 3.22478027 10.54456055 3.44956055 11.24365234 3.68115234 C13.10546875 4.375 13.10546875 4.375 16 6 C17.31144915 9.31749981 17.13403362 10.59789915 16 14 C16.70125 14.4846875 17.4025 14.969375 18.125 15.46875 C28.39744378 22.72645484 35.8211033 29.96625589 42 41 C42.36351562 41.63292969 42.72703125 42.26585937 43.1015625 42.91796875 C46.76832096 50.6798453 46.35068602 60.79209356 43.78125 68.796875 C35.61435042 86.44045993 19.86601974 95.89028399 2.31518555 102.53881836 C-7.90230054 106.18723253 -18.38910757 108.78509649 -29 111 C-29.85996582 111.18079102 -30.71993164 111.36158203 -31.60595703 111.54785156 C-45.65532038 114.31752813 -59.8621861 114.2804884 -74.125 114.3125 C-75.04913696 114.31626648 -75.97327393 114.32003296 -76.92541504 114.32391357 C-113.75439307 114.39989509 -158.12430178 110.27687459 -186.40234375 83.74609375 C-195.08375291 74.45035769 -198.4041483 66.21906058 -198.2734375 53.60546875 C-197.57399935 44.38287711 -192.98696823 37.77537557 -187 31 C-186.41476562 30.33226562 -185.82953125 29.66453125 -185.2265625 28.9765625 C-142.44225393 -16.69613821 -55.42877398 -17.09043764 0 0 Z M-168 26 C-168.93714844 26.69738281 -169.87429688 27.39476562 -170.83984375 28.11328125 C-178.64237841 34.17726456 -186.23012933 41.22398586 -189 51 C-189.79550322 58.74621261 -189.84936675 65.64339764 -185 72 C-179.27004718 78.8117489 -172.70508822 83.63026504 -165 88 C-164.12085938 88.51304687 -163.24171875 89.02609375 -162.3359375 89.5546875 C-137.23331394 103.20202932 -106.64145603 105.18771415 -78.65698242 105.18530273 C-75.8356195 105.18748214 -73.01465316 105.20567782 -70.19335938 105.22460938 C-54.82231405 105.27362451 -40.0617002 103.94805 -25 100.75 C-23.98309082 100.53456543 -22.96618164 100.31913086 -21.91845703 100.09716797 C-2.351977 95.78298269 20.61297832 88.44494674 32.5625 71.3125 C36.97824327 63.96989519 38.05458292 57.62739617 36 49.25 C30.62861986 32.83744956 15.56392774 22.4077915 0.86914062 14.93261719 C-10.26609579 9.37663455 -22.00290224 6.14013248 -34 3 C-35.24910156 2.65453125 -36.49820313 2.3090625 -37.78515625 1.953125 C-77.46690168 -7.36307659 -135.54619822 1.1242433 -168 26 Z " fill="#CACDC1" transform="translate(908,585)"/>
<path d="M0 0 C1.1288562 -0.02114868 1.1288562 -0.02114868 2.28051758 -0.04272461 C8.1984403 0.00852124 13.89995459 0.92892548 18.62158203 4.81103516 C19.03520996 5.32714355 19.44883789 5.84325195 19.875 6.375 C19.5625 9.0625 19.5625 9.0625 18.875 11.375 C15.4856705 12.4683321 13.11708295 12.30193961 9.75 11.4375 C-4.40266 8.02214734 -17.88531462 12.03781377 -30.125 19.375 C-43.05652674 28.31051848 -51.22988618 38.79553857 -54.125 54.375 C-55.04723313 62.86398931 -53.61567923 69.62925923 -50.125 77.375 C-49.83367187 78.096875 -49.54234375 78.81875 -49.2421875 79.5625 C-47.8324946 81.84955422 -46.56062348 82.3069009 -44.125 83.375 C-42.76299651 84.34323614 -41.40927287 85.32318834 -40.0625 86.3125 C-28.94250281 93.67185089 -15.03358093 94.02703993 -2.20703125 91.6484375 C12.86151801 87.60605678 25.24105443 80.62584346 33.5 67.0859375 C36.44386869 61.28183275 37.33409936 55.78040237 37.875 49.375 C37.1543335 49.52122803 36.43366699 49.66745605 35.69116211 49.81811523 C32.39868787 50.4849689 29.1056032 51.1487596 25.8125 51.8125 C24.67876953 52.04259766 23.54503906 52.27269531 22.37695312 52.50976562 C19.21231084 53.14638463 16.04519219 53.76667587 12.875 54.375 C12.11590332 54.52469238 11.35680664 54.67438477 10.57470703 54.82861328 C8.69140625 55.16015625 8.69140625 55.16015625 5.875 55.375 C5.215 54.715 4.555 54.055 3.875 53.375 C4.00390625 50.87890625 4.00390625 50.87890625 4.875 48.375 C11.27958222 43.63591197 21.42044308 42.79701049 29.09375 41.20703125 C32.6618105 40.58349152 32.6618105 40.58349152 34.875 39.375 C27.2693003 31.80526105 21.47929277 28.34640322 10.6875 28 C5.97810921 28.10757492 2.97826141 28.97309088 -1.125 31.375 C-4 31.5625 -4 31.5625 -6.125 31.375 C-6.785 30.055 -7.445 28.735 -8.125 27.375 C-1.93807741 20.83453897 3.04200201 18.31653278 12 18.0625 C21.60934224 18.17889849 29.87305713 21.8753062 36.875 28.375 C39.31513432 30.95980632 41.600301 33.6453612 43.875 36.375 C44.535 37.035 45.195 37.695 45.875 38.375 C48.11634138 38.38819604 48.11634138 38.38819604 50.6796875 37.94921875 C51.65679687 37.81193359 52.63390625 37.67464844 53.640625 37.53320312 C54.66671875 37.37787109 55.6928125 37.22253906 56.75 37.0625 C70.96120548 34.99389764 84.84389769 34.1700304 99.1875 34.1875 C100.02648834 34.18777191 100.86547668 34.18804382 101.72988892 34.18832397 C119.61946493 34.21493681 137.12573625 35.30812163 154.76635742 38.40942383 C158.85728577 39.12346509 162.72168095 39.51934916 166.875 39.375 C165.90046875 38.70404297 165.90046875 38.70404297 164.90625 38.01953125 C164.0709375 37.41496094 163.235625 36.81039062 162.375 36.1875 C161.5396875 35.59582031 160.704375 35.00414062 159.84375 34.39453125 C157.875 32.375 157.875 32.375 157.53125 29.69921875 C157.875 27.375 157.875 27.375 158.875 26.375 C165.34395454 26.56599609 169.0998433 29.13614564 174.1875 32.9375 C174.92935547 33.47673096 175.67121094 34.01596191 176.43554688 34.5715332 C189.99256051 44.49256051 189.99256051 44.49256051 193.875 48.375 C194.25126735 51.76140613 194.40284493 53.65496538 192.3515625 56.453125 C189.11292211 58.96639167 185.87221621 59.5667726 181.9375 60.3125 C175.12367431 61.7372888 169.01767536 63.66597381 162.609375 66.421875 C159.79104926 67.40426283 157.83174406 67.72165275 154.875 67.375 C152.875 65.375 152.875 65.375 152.5625 62.9375 C152.875 60.375 152.875 60.375 153.9140625 58.8828125 C156.81501272 56.65220138 160.1118232 55.75395567 163.5625 54.6875 C164.6153418 54.35008789 164.6153418 54.35008789 165.68945312 54.00585938 C167.41536743 53.45403643 169.14485433 52.91340942 170.875 52.375 C170.875 52.045 170.875 51.715 170.875 51.375 C135.23106774 43.79200361 99.24972462 42.9443686 63.02783203 46.10498047 C57.646507 46.56585591 52.26064847 46.96829842 46.875 47.375 C46.9164917 48.01912842 46.9579834 48.66325684 47.00073242 49.3269043 C47.63199016 61.00083173 42.97173766 71.29555143 35.875 80.375 C25.54612751 91.7570849 12.64012504 98.03728974 -2.125 101.375 C-2.92164063 101.56449219 -3.71828125 101.75398437 -4.5390625 101.94921875 C-18.57135436 104.25967164 -33.05163179 102.1388206 -45.1875 94.5 C-46.52616694 93.4921823 -47.84081033 92.45137474 -49.125 91.375 C-50.05699219 90.62476563 -50.05699219 90.62476563 -51.0078125 89.859375 C-56.97977099 84.53373236 -61.81725774 76.33769729 -63.125 68.375 C-63.65341852 58.69071436 -63.67692344 49.53751271 -60.125 40.375 C-59.81949219 39.5603125 -59.51398438 38.745625 -59.19921875 37.90625 C-51.84308226 21.00051086 -35.53712163 10.14030205 -19.125 3.375 C-17.86236328 2.82972656 -17.86236328 2.82972656 -16.57421875 2.2734375 C-11.13342722 0.26250592 -5.74149907 0.07860282 0 0 Z " fill="#CACDC0" transform="translate(336.125,457.625)"/>
<path d="M0 0 C7.24084751 6.10439162 11.53506827 11.99107131 12.7421875 21.46875 C14.08478505 39.45075328 7.89002153 54.06873388 -3.66186523 67.61523438 C-10.62364136 75.39365135 -21.10667001 85.32048314 -31.2578125 88.46875 C-37.86314584 88.07771427 -41.89834587 82.97126163 -46.2578125 78.46875 C-55.58044314 67.78656906 -58.18371912 55.69044241 -57.640625 41.84375 C-56.66426833 27.72035156 -50.02964251 16.38467217 -39.98828125 6.73828125 C-29.87104409 -1.67103891 -12.32028174 -7.66595308 0 0 Z " fill="#FEFDFA" transform="translate(823.2578125,736.53125)"/>
<path d="M0 0 C0.80993408 -0.05220703 1.61986816 -0.10441406 2.4543457 -0.15820312 C5.87142842 -0.17824677 8.03884333 -0.10045491 10.58520508 2.30932617 C15.35880109 9.24650057 14.76775369 16.71630716 13.9375 24.75 C11.04901133 38.95921132 0.35504021 49.8277357 -11.1328125 57.91015625 C-24.49633538 66.52399329 -37.20463331 70.91433147 -53.0625 69.75 C-57.83029474 68.58954926 -61.61060898 66.56314655 -65.0625 63.0625 C-68.36213494 57.59747963 -68.42465531 53.03157846 -67.4375 46.8125 C-62.42792899 30.42635482 -49.24221432 17.52439861 -34.37255859 9.55371094 C-23.28007958 3.87995656 -12.51381729 0.46749417 0 0 Z " fill="#FEFDFA" transform="translate(553.0625,586.25)"/>
<path d="M0 0 C0.76763672 -0.020625 1.53527344 -0.04125 2.32617188 -0.0625 C7.92061755 -0.10151967 7.92061755 -0.10151967 10.4765625 1.63671875 C11.4375 3.25 11.4375 3.25 11.25 5.3125 C10.4375 7.25 10.4375 7.25 8.4375 9.25 C6.2578125 9.48828125 6.2578125 9.48828125 3.5625 9.5625 C-11.7221596 10.72133694 -26.37688859 20.79150643 -36.1953125 32.13671875 C-43.21872623 41.494261 -44.54429928 51.86385559 -43.5625 63.25 C-41.97238352 69.15244325 -39.22830512 73.26699563 -34.5625 77.25 C-33.86125 77.91 -33.16 78.57 -32.4375 79.25 C-20.03366583 87.8787542 -5.46748658 89.15349923 9.15234375 86.6015625 C22.17011578 82.90924898 35.08338521 75.60264689 41.875 63.625 C45.54139127 56.65186348 46.75436474 49.31428556 44.75390625 41.62109375 C42.837699 36.2859275 40.68154259 31.88206735 35.4375 29.25 C26.75168579 26.03384209 18.51466347 24.04196323 9.25 24 C8.4962207 23.99605225 7.74244141 23.99210449 6.96582031 23.98803711 C1.77852214 24.04204826 -2.63532273 24.72910992 -7.484375 26.69140625 C-10.11748097 27.39917722 -11.95667749 26.9379007 -14.5625 26.25 C-15.0575 24.27 -15.0575 24.27 -15.5625 22.25 C-7.50688887 14.7985597 1.34094803 12.89154351 12.18359375 13.0390625 C25.57203269 13.90698051 38.18016826 17.1098034 48.4375 26.25 C54.89525964 34.95266932 57.37579126 43.48199077 56.4375 54.25 C53.93105823 67.96171086 46.04004557 78.86774811 34.99609375 86.96484375 C31.26900028 89.46748638 27.35389437 91.38345205 23.25 93.1875 C22.6096582 93.46964355 21.96931641 93.75178711 21.30957031 94.04248047 C7.01543026 99.99412012 -9.86302231 100.42195266 -24.51953125 95.5078125 C-36.73673046 90.45782772 -47.08568173 82.29112276 -52.52734375 70.0859375 C-56.32114288 59.63113621 -55.85546232 47.36372002 -51.89453125 37.0625 C-49.56093037 32.13524887 -46.74639881 27.66818558 -43.5625 23.25 C-43.10101563 22.60289063 -42.63953125 21.95578125 -42.1640625 21.2890625 C-32.41511508 8.83520482 -15.67493211 0.10582233 0 0 Z " fill="#CBCDC1" transform="translate(98.5625,60.75)"/>
<path d="M0 0 C0.99 0.99 0.99 0.99 2 2 C1.44444444 6.55555556 1.44444444 6.55555556 0 8 C-2.12829071 8.05125667 -4.2582452 8.03518697 -6.38671875 7.9921875 C-7.73241369 7.97462139 -9.0781174 7.95771814 -10.42382812 7.94140625 C-12.53418883 7.91088801 -14.64409725 7.87597419 -16.75415039 7.82861328 C-38.97227612 7.35639521 -56.97122813 13.32061741 -73.25 28.8125 C-83.90472398 39.85558952 -91.73224644 54.41571725 -92.3125 69.9375 C-92.03986403 80.29766679 -88.01158267 88.68119387 -80.9609375 96.1640625 C-69.9350668 106.56656242 -58.01098804 109.56388678 -43.12890625 109.30859375 C-26.06662711 108.31798684 -9.27479255 102.16824053 3 90 C11.00054284 80.62436386 16.84020933 70.60313996 16 58 C15.01547224 52.74316371 13.76104561 49.11631903 9.3125 45.9375 C7.6728125 44.9784375 7.6728125 44.9784375 6 44 C6.875 40.125 6.875 40.125 8 39 C11.35935746 38.52968996 13.90122484 38.37212848 16.9140625 40.09375 C21.58398982 43.82969186 24.43325762 48.07209624 25.29931641 54.07446289 C25.43824399 56.30917618 25.46753457 58.51123279 25.4375 60.75 C25.42992676 61.54277344 25.42235352 62.33554687 25.41455078 63.15234375 C25.23140182 69.70827457 24.01892559 75.13090863 21 81 C20.34644531 82.27230469 20.34644531 82.27230469 19.6796875 83.5703125 C9.70492159 101.39407454 -6.46309203 110.5562704 -25.1328125 117.09765625 C-39.39322703 121.10025302 -56.35087825 120.88022078 -70 115 C-70.85207031 114.67257812 -71.70414063 114.34515625 -72.58203125 114.0078125 C-85.15109758 108.58430986 -93.73653413 98.48395385 -98.79833984 86.03686523 C-101.01842795 80.08742439 -101.5437904 74.63494694 -101.5 68.3125 C-101.49427979 67.34715332 -101.48855957 66.38180664 -101.48266602 65.38720703 C-101.04429549 47.71954638 -92.05460618 33.42318227 -80 21 C-79.44828125 20.37480469 -78.8965625 19.74960937 -78.328125 19.10546875 C-60.10393075 -0.87799177 -25.45356275 -9.00791669 0 0 Z " fill="#CACDC0" transform="translate(149,450)"/>
<path d="M0 0 C2.22814551 1.66260476 3.053019 2.95988243 4.046875 5.52734375 C3.386875 6.51734375 2.726875 7.50734375 2.046875 8.52734375 C-2.29639706 8.14127512 -5.88814655 7.2443084 -9.953125 5.65234375 C-24.36752703 0.22226079 -39.68848198 -0.74797045 -54.953125 -0.47265625 C-53.39078125 -0.26962891 -53.39078125 -0.26962891 -51.796875 -0.0625 C-37.25617712 2.03721507 -23.94742023 6.39389938 -12.953125 16.52734375 C-12.086875 17.31109375 -11.220625 18.09484375 -10.328125 18.90234375 C1.48508746 31.95905226 6.80695737 45.11260699 6.43359375 62.703125 C5.95260473 71.53283322 2.42966626 79.54965137 -2.953125 86.52734375 C-4.603125 86.19734375 -6.253125 85.86734375 -7.953125 85.52734375 C-8.22196728 80.93686177 -7.56320078 78.26501699 -5.453125 74.21484375 C-1.23967025 64.6029001 -1.34297332 52.61351915 -4.90625 42.73046875 C-6.83200078 38.67776934 -9.26013588 35.10418571 -11.953125 31.52734375 C-12.695625 30.49609375 -13.438125 29.46484375 -14.203125 28.40234375 C-26.87157459 15.15805554 -45.26032656 9.5648198 -63.18261719 9.10351562 C-82.43975971 9.01058216 -100.48200534 12.35200839 -115.953125 24.52734375 C-116.78714844 25.15253906 -117.62117188 25.77773438 -118.48046875 26.421875 C-125.69153111 32.5621003 -132.24863117 42.06989461 -133.15576172 51.67236328 C-133.29784935 54.14751971 -133.36380383 56.61080118 -133.390625 59.08984375 C-133.4009375 59.88132812 -133.41125 60.6728125 -133.421875 61.48828125 C-133.34637655 66.54667715 -132.46169356 70.76137797 -130.69165039 75.49975586 C-129.95896958 77.51129773 -129.32849564 79.41821086 -128.953125 81.52734375 C-130.140625 83.33984375 -130.140625 83.33984375 -131.953125 84.52734375 C-133.8984375 84.40234375 -133.8984375 84.40234375 -135.953125 83.52734375 C-137.40234375 81.3828125 -137.40234375 81.3828125 -138.640625 78.71484375 C-139.05699219 77.84214844 -139.47335937 76.96945312 -139.90234375 76.0703125 C-143.86563349 66.47885667 -143.70030185 52.05059367 -140.328125 42.33984375 C-139.59040029 40.71016616 -138.79918806 39.1034986 -137.953125 37.52734375 C-137.52902344 36.69460938 -137.10492188 35.861875 -136.66796875 35.00390625 C-128.18252101 19.6402822 -113.89463091 8.39287296 -97.1015625 3.30078125 C-89.51884966 1.16387712 -81.93796746 -0.65703844 -74.015625 -0.53515625 C-73.24347656 -0.52613281 -72.47132813 -0.51710938 -71.67578125 -0.5078125 C-71.10730469 -0.49621094 -70.53882813 -0.48460937 -69.953125 -0.47265625 C-70.05625 -1.23578125 -70.159375 -1.99890625 -70.265625 -2.78515625 C-69.953125 -5.47265625 -69.953125 -5.47265625 -67.765625 -7.22265625 C-48.50082515 -15.78478952 -18.1051949 -9.4450511 0 0 Z " fill="#CACDC0" transform="translate(407.953125,901.47265625)"/>
<path d="M0 0 C0.67305176 0.19295654 1.34610352 0.38591309 2.03955078 0.5847168 C4.97431897 1.52428693 6.63635298 2.10872806 8.37109375 4.72265625 C8.55800781 5.32980469 8.74492187 5.93695312 8.9375 6.5625 C4.67290389 6.714807 1.49330467 6.71587872 -2.66235352 5.5690918 C-7.14461158 4.42918943 -11.38834747 4.25633702 -15.99609375 4.26171875 C-17.2503994 4.25529106 -17.2503994 4.25529106 -18.53004456 4.24873352 C-20.29402773 4.24302052 -22.05803445 4.24246746 -23.82202148 4.24682617 C-26.46185865 4.2499548 -29.10053786 4.22659867 -31.74023438 4.20117188 C-51.44217299 4.1268062 -72.44967168 6.38294762 -87.8125 20 C-93.27779133 26.22435957 -95.48881902 31.07971485 -95.328125 39.26171875 C-94.65431611 45.09809283 -91.40269731 48.53887582 -87.125 52.1875 C-70.98725485 64.05034577 -48.35372737 63.45932107 -29.3359375 60.9140625 C-13.68340036 58.30827756 4.84432806 52.33500335 14.5625 39.0625 C16.94128072 35.10011172 17.74496778 32.22786939 16.9375 27.5625 C15.025614 22.99521678 12.15471752 21.02254355 7.9375 18.5625 C4.87513689 17.5417123 2.84963221 17.46055348 -0.3515625 17.5 C-1.37507813 17.50773438 -2.39859375 17.51546875 -3.453125 17.5234375 C-4.52046875 17.53632812 -5.5878125 17.54921875 -6.6875 17.5625 C-8.80463781 17.58788535 -10.92183326 17.60896038 -13.0390625 17.625 C-13.97830566 17.63660156 -14.91754883 17.64820313 -15.88525391 17.66015625 C-18.0625 17.5625 -18.0625 17.5625 -19.0625 16.5625 C-19.4375 14.1875 -19.4375 14.1875 -19.0625 11.5625 C-12.58917081 6.52768841 -4.89780713 7.07448779 2.9375 7.5625 C10.64953278 8.83525506 17.22833472 12.11150167 22.28515625 18.1796875 C25.70084733 23.10122088 26.61783818 27.66957079 25.9375 33.5625 C23.32183181 44.39631489 16.00215559 51.85606844 6.875 57.8125 C-4.65277852 64.46314145 -16.97561275 68.33050328 -30.0625 70.5625 C-31.11566406 70.74554687 -32.16882813 70.92859375 -33.25390625 71.1171875 C-53.83257677 73.52330898 -74.95884291 72.06939189 -92.3984375 59.9375 C-99.12891183 54.53310426 -103.34841317 47.56444497 -104.37109375 38.96875 C-104.837571 28.45180844 -101.15596065 20.61022084 -94.1875 12.8125 C-69.81630762 -9.75645294 -29.83266349 -8.82733885 0 0 Z " fill="#CACCC0" transform="translate(458.0625,769.4375)"/>
<path d="M0 0 C5.87848984 0.2614322 10.54152704 2.33460622 15.8125 4.8125 C17.40164643 5.54188578 18.99148645 6.26976239 20.58203125 6.99609375 C21.34080566 7.34397949 22.09958008 7.69186523 22.88134766 8.05029297 C26.2848891 9.57596435 29.75473702 10.91235021 33.25 12.2109375 C35 13 35 13 37 15 C37.4375 17.8125 37.4375 17.8125 37 21 C32.85720721 25.60653825 27.99584717 29.47450535 23.25976562 33.45117188 C20.2811064 35.97407996 17.45906739 38.5235107 14.765625 41.3515625 C12 44 12 44 8.6875 44.4375 C6 44 6 44 5 43 C4.42697304 38.89330676 4.7425615 37.36041389 7.1875 33.9375 C8.10720033 32.94159593 9.04531839 31.96242227 10 31 C10.47695312 30.50886719 10.95390625 30.01773437 11.4453125 29.51171875 C12.61468636 28.32563955 13.80530038 27.16056534 15 26 C-6.14216544 33.1182165 -23.12493129 46.81703238 -39 62 C-39.67804688 62.63679688 -40.35609375 63.27359375 -41.0546875 63.9296875 C-47.04241818 69.69667235 -53.60961913 76.34025062 -57 84 C-55.7625 83.505 -55.7625 83.505 -54.5 83 C-50.4126017 81.83217191 -47.23076656 81.8541115 -43 82 C-42.375 84.375 -42.375 84.375 -42 87 C-44.51551923 89.51551923 -46.45160965 89.81410911 -49.875 90.75 C-54.7271574 92.16163429 -58.9386893 93.89829556 -63.375 96.3125 C-69.41762877 99.46969361 -69.41762877 99.46969361 -73.125 99.125 C-76 98 -76 98 -77.15625 96.23828125 C-80.35871648 87.74284933 -77.23988001 78.02875376 -74 70 C-73.01 69.01 -73.01 69.01 -72 68 C-68.46428571 68.53571429 -68.46428571 68.53571429 -67 70 C-66.92773498 71.85287502 -66.9161878 73.70833878 -66.9375 75.5625 C-66.94652344 76.57441406 -66.95554687 77.58632813 -66.96484375 78.62890625 C-66.97644531 79.41136719 -66.98804687 80.19382812 -67 81 C-66.34515625 80.14019531 -65.6903125 79.28039062 -65.015625 78.39453125 C-58.42927536 69.83093332 -51.46898927 61.80100154 -44 54 C-43.16726562 53.11441406 -42.33453125 52.22882813 -41.4765625 51.31640625 C-26.26080263 35.53436406 -7.34190028 24.9103301 12 15 C9.24540876 12.7925536 6.63310355 11.28323842 3.375 9.9375 C0.63798755 8.80541345 -0.88279445 8.11720555 -3 6 C-2.63318342 3.06546739 -2.13562754 2.13562754 0 0 Z " fill="#CBCDC1" transform="translate(172,429)"/>
<path d="M0 0 C0.042721 1.66611905 0.04063832 3.33382885 0 5 C-1 6 -1 6 -4.125 6.375 C-9.84692072 6.33376093 -15.05122512 4.11260029 -20.37890625 2.2421875 C-39.57331224 -4.34230129 -62.8636542 -4.56533799 -82 2 C-83.07378906 2.36222656 -84.14757812 2.72445312 -85.25390625 3.09765625 C-97.73209995 7.79889143 -109.70314119 16.4006487 -115.4375 28.75 C-118.53023047 36.65213072 -119.45343604 44.94221227 -116.1328125 52.9375 C-113.91268663 56.9796602 -110.96771361 60.48752801 -108 64 C-108.66 65.32 -109.32 66.64 -110 68 C-114.46050765 67.4902277 -116.79215539 66.1276485 -120 63 C-126.71414187 54.09940847 -128.11491895 44.99821086 -127 34 C-124.8149109 25.30841791 -120.83813764 18.68708382 -115 12 C-114.38769531 11.18273437 -113.77539062 10.36546875 -113.14453125 9.5234375 C-102.6583302 -2.81551674 -84.44012293 -9.26537332 -69 -12 C-68.06800781 -12.18304687 -67.13601562 -12.36609375 -66.17578125 -12.5546875 C-44.2679131 -15.62663949 -18.9921539 -11.509643 0 0 Z " fill="#CACDC1" transform="translate(177,907)"/>
<path d="M0 0 C1 1 1 1 1.27734375 3.32861328 C0.9283534 6.6901031 0.03626587 7.49928233 -2.4375 9.7421875 C-3.16839844 10.41636719 -3.89929688 11.09054687 -4.65234375 11.78515625 C-5.42707031 12.47480469 -6.20179688 13.16445313 -7 13.875 C-7.74378906 14.55691406 -8.48757813 15.23882813 -9.25390625 15.94140625 C-13.62100443 19.92875676 -18.06974351 23.81638669 -22.56640625 27.65673828 C-23.03949219 28.10001465 -23.51257813 28.54329102 -24 29 C-24 29.33 -24 29.66 -24 30 C-22.4221875 29.7525 -22.4221875 29.7525 -20.8125 29.5 C-14.91439851 28.75743327 -8.93329565 28.70377085 -3 29 C-2 30 -2 30 -1.8125 32.9375 C-2 36 -2 36 -4 38 C-6.45507812 38.48657227 -6.45507812 38.48657227 -9.53125 38.81640625 C-10.65273438 38.94080078 -11.77421875 39.06519531 -12.9296875 39.19335938 C-14.10789062 39.31517578 -15.28609375 39.43699219 -16.5 39.5625 C-17.64726562 39.68818359 -18.79453125 39.81386719 -19.9765625 39.94335938 C-22.2438497 40.18997205 -24.512098 40.42791899 -26.78125 40.65673828 C-28.84756328 40.87709906 -30.91096694 41.12810473 -32.96875 41.41748047 C-33.855625 41.53623535 -34.7425 41.65499023 -35.65625 41.77734375 C-36.42775391 41.89198975 -37.19925781 42.00663574 -37.99414062 42.12475586 C-40 42 -40 42 -41.77954102 40.76611328 C-43.73082613 37.94242923 -42.99892856 35.82118085 -42.51123047 32.55419922 C-41.62746643 28.13875538 -40.39154445 23.86197472 -39.0625 19.5625 C-38.79759766 18.66595703 -38.53269531 17.76941406 -38.25976562 16.84570312 C-36.25962189 10.25962189 -36.25962189 10.25962189 -34 8 C-29.44444444 8.55555556 -29.44444444 8.55555556 -28 10 C-27.92794489 11.68608966 -27.91613932 13.37500659 -27.9375 15.0625 C-27.94652344 15.98160156 -27.95554687 16.90070312 -27.96484375 17.84765625 C-27.97644531 18.55792969 -27.98804688 19.26820313 -28 20 C-27.5153125 19.50371094 -27.030625 19.00742187 -26.53125 18.49609375 C-22.45000344 14.35990734 -18.29979823 10.37736724 -13.875 6.609375 C-12.6829216 5.58617437 -11.5128692 4.53628895 -10.375 3.453125 C-6.91137226 0.24205345 -4.70723217 -0.65682309 0 0 Z " fill="#CBCDC1" transform="translate(528,732)"/>
<path d="M0 0 C1.2065625 0.0309375 1.2065625 0.0309375 2.4375 0.0625 C4.98437231 4.58958863 6.13182598 8.77211253 6.82421875 13.8671875 C6.93095413 14.5911673 7.03768951 15.31514709 7.1476593 16.06106567 C7.48314542 18.35192698 7.8042829 20.64452937 8.125 22.9375 C8.35126501 24.50013764 8.57846927 26.06263958 8.80664062 27.625 C9.3611332 31.43601699 9.90277556 35.24866124 10.4375 39.0625 C10.90800781 38.23105469 11.37851562 37.39960937 11.86328125 36.54296875 C12.48589844 35.45628906 13.10851562 34.36960937 13.75 33.25 C14.36488281 32.17105469 14.97976563 31.09210937 15.61328125 29.98046875 C18.29285883 25.6942922 18.29285883 25.6942922 20.4375 24.0625 C23.125 24.375 23.125 24.375 25.4375 25.0625 C25.70583611 29.61838951 25.15237684 32.31920285 22.91796875 36.28515625 C22.12616211 37.71118164 22.12616211 37.71118164 21.31835938 39.16601562 C20.48014648 40.63071289 20.48014648 40.63071289 19.625 42.125 C19.07779297 43.10533203 18.53058594 44.08566406 17.96679688 45.09570312 C16.47373051 47.76150525 14.96793359 50.41798745 13.4375 53.0625 C12.94161377 53.97056396 12.44572754 54.87862793 11.93481445 55.81420898 C10.4375 58.0625 10.4375 58.0625 7.5625 59.125 C3.45940108 59.04293802 2.42533116 57.82466415 -0.5625 55.0625 C-2.13051056 53.00851357 -3.62793971 50.8993148 -5.0625 48.75 C-5.84208977 47.59350849 -6.62203518 46.43725664 -7.40234375 45.28125 C-8.11519531 44.2190625 -8.82804687 43.156875 -9.5625 42.0625 C-11.21189268 39.71601988 -12.885171 37.38911764 -14.5625 35.0625 C-13.11676621 31.32768771 -13.11676621 31.32768771 -10.75 30.1953125 C-8.5625 30.0625 -8.5625 30.0625 -6.421875 31.64453125 C-5.72578125 32.38058594 -5.0296875 33.11664062 -4.3125 33.875 C-3.60609375 34.60332031 -2.8996875 35.33164062 -2.171875 36.08203125 C-0.5625 38.0625 -0.5625 38.0625 -0.5625 40.0625 C0.0975 40.0625 0.7575 40.0625 1.4375 40.0625 C1.1075 39.4025 0.7775 38.7425 0.4375 38.0625 C0.15894732 36.23859977 -0.07316027 34.40749513 -0.28125 32.57421875 C-0.40886719 31.47529297 -0.53648437 30.37636719 -0.66796875 29.24414062 C-0.79816406 28.09107422 -0.92835938 26.93800781 -1.0625 25.75 C-1.32108923 23.48286373 -1.58144235 21.2159278 -1.84375 18.94921875 C-1.95783203 17.94076904 -2.07191406 16.93231934 -2.18945312 15.89331055 C-2.43070678 14.06259317 -2.7306042 12.23825456 -3.09960938 10.42895508 C-3.71722941 7.27147039 -3.68585499 4.26972972 -3.5625 1.0625 C-2.5625 0.0625 -2.5625 0.0625 0 0 Z " fill="#CBCDC1" transform="translate(436.5625,695.9375)"/>
<path d="M0 0 C10.4526585 4.05075926 17.17269535 10.99725437 21.8125 21.125 C26.49117855 32.1011404 25.66400513 45.34038642 21.5 56.375 C20.05586825 59.66762039 19.02309868 61.85190132 16.5 64.375 C13.875 64.5 13.875 64.5 11.5 64.375 C10.18624597 59.93798167 10.95359271 57.25931752 12.4375 52.9375 C15.58529235 42.499508 16.17914852 31.46934286 11.5 21.375 C7.53456483 14.63726945 2.53392744 9.76038895 -5.23828125 7.734375 C-9.55306705 7.04877864 -13.93140453 6.96289432 -18.29296875 6.81640625 C-21.65285153 6.35396197 -23.05291994 5.65205961 -25.5 3.375 C-25.125 1.4375 -25.125 1.4375 -24.5 -0.625 C-17.97666637 -3.88666682 -6.67498923 -2.05712584 0 0 Z " fill="#CACCC0" transform="translate(167.5,916.625)"/>
<path d="M0 0 C1.70736328 0.06562134 1.70736328 0.06562134 3.44921875 0.13256836 C4.68929688 0.17704102 5.929375 0.22151367 7.20703125 0.26733398 C8.50382812 0.33500977 9.800625 0.40268555 11.13671875 0.47241211 C12.43351563 0.51301758 13.7303125 0.55362305 15.06640625 0.59545898 C24.5202088 1.00328934 24.5202088 1.00328934 27.09375 2.70068359 C27.43792969 3.264729 27.78210938 3.82877441 28.13671875 4.40991211 C27.80671875 5.72991211 27.47671875 7.04991211 27.13671875 8.40991211 C22.84671875 9.06991211 18.55671875 9.72991211 14.13671875 10.40991211 C16.45703125 12.51366211 16.45703125 12.51366211 18.82421875 14.65991211 C20.12939453 15.84327148 20.12939453 15.84327148 21.4609375 17.05053711 C23.22661571 18.60742709 25.04408864 20.10769234 26.91015625 21.54272461 C29.13671875 23.40991211 29.13671875 23.40991211 30.07421875 26.03491211 C30.09484375 26.81866211 30.11546875 27.60241211 30.13671875 28.40991211 C29.47671875 29.06991211 28.81671875 29.72991211 28.13671875 30.40991211 C24.33824496 30.1100326 21.92660985 28.9931446 19.13671875 26.40991211 C19.13671875 25.74991211 19.13671875 25.08991211 19.13671875 24.40991211 C18.56953125 24.16241211 18.00234375 23.91491211 17.41796875 23.65991211 C13.91759786 21.74190066 11.26220599 18.99255776 8.35546875 16.28491211 C6.00045794 14.14533361 6.00045794 14.14533361 2.13671875 12.40991211 C3.12671875 18.67991211 4.11671875 24.94991211 5.13671875 31.40991211 C3.48671875 31.73991211 1.83671875 32.06991211 0.13671875 32.40991211 C-5.01711896 24.469826 -7.44414654 13.83310916 -5.86328125 4.40991211 C-4.22330513 1.31804352 -3.52957899 0.5053004 0 0 Z " fill="#CACCC0" transform="translate(499.86328125,808.590087890625)"/>
<path d="M0 0 C5.6267971 0.56582317 10.69329709 1.62519187 16.0625 3.375 C16.73087891 3.58382813 17.39925781 3.79265625 18.08789062 4.0078125 C22.5204 5.42070179 26.74943787 7.10963297 31 9 C27.64407397 10.11864201 26.89834188 9.89164534 23.6484375 8.85546875 C22.79636719 8.59056641 21.94429687 8.32566406 21.06640625 8.05273438 C20.17824219 7.76720703 19.29007813 7.48167969 18.375 7.1875 C11.95236897 5.15350731 5.59915961 3.37203623 -1 2 C-0.67 1.34 -0.34 0.68 0 0 Z " fill="#F7F7F5" transform="translate(232,261)"/>
<path d="M0 0 C1 3 1 3 -0.07421875 5.55859375 C-0.60660156 6.50863281 -1.13898438 7.45867188 -1.6875 8.4375 C-2.20699219 9.38496094 -2.72648437 10.33242188 -3.26171875 11.30859375 C-4.94818131 13.91976836 -6.72123664 15.89996318 -9 18 C-9.66 17.67 -10.32 17.34 -11 17 C-10.54109375 16.443125 -10.0821875 15.88625 -9.609375 15.3125 C-5.66702243 10.40940605 -2.60339378 5.72746633 0 0 Z " fill="#BEC2B3" transform="translate(373,518)"/>
<path d="M0 0 C0.66 0.33 1.32 0.66 2 1 C-1.95825209 5.82485166 -5.59160025 9.83410746 -11 13 C-9.46356148 9.31930113 -7.21849055 7.01224796 -4.375 4.25 C-3.55773437 3.45078125 -2.74046875 2.6515625 -1.8984375 1.828125 C-0.95871094 0.92320312 -0.95871094 0.92320312 0 0 Z " fill="#BEC1B1" transform="translate(501,596)"/>
<path d="M0 0 C1.31471568 0.28151087 2.62675767 0.57553339 3.9375 0.875 C4.66839844 1.03742187 5.39929688 1.19984375 6.15234375 1.3671875 C8 2 8 2 9 4 C5.37 4 1.74 4 -2 4 C-1.34 2.68 -0.68 1.36 0 0 Z " fill="#D1D4C9" transform="translate(456,771)"/>
</svg>
